<?xml version="1.0" encoding="UTF-8"?>
<svg width="108" height="108" version="1.1" viewBox="0 0 108 108" xmlns="http://www.w3.org/2000/svg">
 <g transform="matrix(.44444 0 0 .44444 18.333 18.333)" fill="#ffffff">
  <!-- Stylized book/journal shape -->
  <path d="m120 30h-80c-5.52 0-10 4.48-10 10v100c0 5.52 4.48 10 10 10h80c5.52 0 10-4.48 10-10v-100c0-5.52-4.48-10-10-10zm-10 100h-60v-80h60z"/>
  <!-- Lines representing text -->
  <rect x="60" y="60" width="40" height="4" rx="2"/>
  <rect x="60" y="75" width="40" height="4" rx="2"/>
  <rect x="60" y="90" width="30" height="4" rx="2"/>
  <!-- Focus/target circle -->
  <circle cx="45" cy="77" r="15" fill="none" stroke="#fff" stroke-width="4"/>
  <circle cx="45" cy="77" r="5"/>
 </g>
</svg>